<svg width="2400" height="800" viewBox="0 0 2400 800" fill="none" xmlns="http://www.w3.org/2000/svg">
<path d="M225 254.8C218.6 243.067 209.8 234.133 198.6 228C187.4 221.867 174.333 218.8 159.4 218.8C142.867 218.8 128.2 222.533 115.4 230C102.6 237.467 92.6 248.133 85.4 262C78.2 275.867 74.6 291.867 74.6 310C74.6 328.667 78.2 344.933 85.4 358.8C92.8667 372.667 103.133 383.333 116.2 390.8C129.267 398.267 144.467 402 161.8 402C183.133 402 200.6 396.4 214.2 385.2C227.8 373.733 236.733 357.867 241 337.6H145V294.8H296.2V343.6C292.467 363.067 284.467 381.067 272.2 397.6C259.933 414.133 244.067 427.467 224.6 437.6C205.4 447.467 183.8 452.4 159.8 452.4C132.867 452.4 108.467 446.4 86.6 434.4C65 422.133 47.9333 405.2 35.4 383.6C23.1333 362 17 337.467 17 310C17 282.533 23.1333 258 35.4 236.4C47.9333 214.533 65 197.6 86.6 185.6C108.467 173.333 132.733 167.2 159.4 167.2C190.867 167.2 218.2 174.933 241.4 190.4C264.6 205.6 280.6 227.067 289.4 254.8H225ZM393.631 262.8C400.831 251.067 410.165 241.867 421.631 235.2C433.365 228.533 446.698 225.2 461.631 225.2V284H446.831C429.231 284 415.898 288.133 406.831 296.4C398.031 304.667 393.631 319.067 393.631 339.6V450H337.631V228.4H393.631V262.8ZM705.35 334.4C705.35 342.4 704.817 349.6 703.75 356H541.75C543.083 372 548.683 384.533 558.55 393.6C568.417 402.667 580.55 407.2 594.95 407.2C615.75 407.2 630.55 398.267 639.35 380.4H699.75C693.35 401.733 681.083 419.333 662.95 433.2C644.817 446.8 622.55 453.6 596.15 453.6C574.817 453.6 555.617 448.933 538.55 439.6C521.75 430 508.55 416.533 498.95 399.2C489.617 381.867 484.95 361.867 484.95 339.2C484.95 316.267 489.617 296.133 498.95 278.8C508.283 261.467 521.35 248.133 538.15 238.8C554.95 229.467 574.283 224.8 596.15 224.8C617.217 224.8 636.017 229.333 652.55 238.4C669.35 247.467 682.283 260.4 691.35 277.2C700.683 293.733 705.35 312.8 705.35 334.4ZM647.35 318.4C647.083 304 641.883 292.533 631.75 284C621.617 275.2 609.217 270.8 594.55 270.8C580.683 270.8 568.95 275.067 559.35 283.6C550.017 291.867 544.283 303.467 542.15 318.4H647.35ZM952.225 334.4C952.225 342.4 951.692 349.6 950.625 356H788.625C789.958 372 795.558 384.533 805.425 393.6C815.292 402.667 827.425 407.2 841.825 407.2C862.625 407.2 877.425 398.267 886.225 380.4H946.625C940.225 401.733 927.958 419.333 909.825 433.2C891.692 446.8 869.425 453.6 843.025 453.6C821.692 453.6 802.492 448.933 785.425 439.6C768.625 430 755.425 416.533 745.825 399.2C736.492 381.867 731.825 361.867 731.825 339.2C731.825 316.267 736.492 296.133 745.825 278.8C755.158 261.467 768.225 248.133 785.025 238.8C801.825 229.467 821.158 224.8 843.025 224.8C864.092 224.8 882.892 229.333 899.425 238.4C916.225 247.467 929.158 260.4 938.225 277.2C947.558 293.733 952.225 312.8 952.225 334.4ZM894.225 318.4C893.958 304 888.758 292.533 878.625 284C868.492 275.2 856.092 270.8 841.425 270.8C827.558 270.8 815.825 275.067 806.225 283.6C796.892 291.867 791.158 303.467 789.025 318.4H894.225ZM1115.9 225.2C1142.3 225.2 1163.63 233.6 1179.9 250.4C1196.17 266.933 1204.3 290.133 1204.3 320V450H1148.3V327.6C1148.3 310 1143.9 296.533 1135.1 287.2C1126.3 277.6 1114.3 272.8 1099.1 272.8C1083.63 272.8 1071.37 277.6 1062.3 287.2C1053.5 296.533 1049.1 310 1049.1 327.6V450H993.1V228.4H1049.1V256C1056.57 246.4 1066.03 238.933 1077.5 233.6C1089.23 228 1102.03 225.2 1115.9 225.2Z" fill="#1B5E20"/>
<path d="M707.8 543.7C703.2 543.7 699.067 542.9 695.4 541.3C691.8 539.633 688.967 537.367 686.9 534.5C684.833 531.567 683.767 528.2 683.7 524.4H693.4C693.733 527.667 695.067 530.433 697.4 532.7C699.8 534.9 703.267 536 707.8 536C712.133 536 715.533 534.933 718 532.8C720.533 530.6 721.8 527.8 721.8 524.4C721.8 521.733 721.067 519.567 719.6 517.9C718.133 516.233 716.3 514.967 714.1 514.1C711.9 513.233 708.933 512.3 705.2 511.3C700.6 510.1 696.9 508.9 694.1 507.7C691.367 506.5 689 504.633 687 502.1C685.067 499.5 684.1 496.033 684.1 491.7C684.1 487.9 685.067 484.533 687 481.6C688.933 478.667 691.633 476.4 695.1 474.8C698.633 473.2 702.667 472.4 707.2 472.4C713.733 472.4 719.067 474.033 723.2 477.3C727.4 480.567 729.767 484.9 730.3 490.3H720.3C719.967 487.633 718.567 485.3 716.1 483.3C713.633 481.233 710.367 480.2 706.3 480.2C702.5 480.2 699.4 481.2 697 483.2C694.6 485.133 693.4 487.867 693.4 491.4C693.4 493.933 694.1 496 695.5 497.6C696.967 499.2 698.733 500.433 700.8 501.3C702.933 502.1 705.9 503.033 709.7 504.1C714.3 505.367 718 506.633 720.8 507.9C723.6 509.1 726 511 728 513.6C730 516.133 731 519.6 731 524C731 527.4 730.1 530.6 728.3 533.6C726.5 536.6 723.833 539.033 720.3 540.9C716.767 542.767 712.6 543.7 707.8 543.7ZM810.291 487.2C814.558 487.2 818.358 488.1 821.691 489.9C825.025 491.633 827.658 494.267 829.591 497.8C831.525 501.333 832.491 505.633 832.491 510.7V543H823.491V512C823.491 506.533 822.125 502.367 819.391 499.5C816.725 496.567 813.091 495.1 808.491 495.1C803.758 495.1 799.991 496.633 797.191 499.7C794.391 502.7 792.991 507.067 792.991 512.8V543H783.991V512C783.991 506.533 782.625 502.367 779.891 499.5C777.225 496.567 773.591 495.1 768.991 495.1C764.258 495.1 760.491 496.633 757.691 499.7C754.891 502.7 753.491 507.067 753.491 512.8V543H744.391V488.2H753.491V496.1C755.291 493.233 757.691 491.033 760.691 489.5C763.758 487.967 767.125 487.2 770.791 487.2C775.391 487.2 779.458 488.233 782.991 490.3C786.525 492.367 789.158 495.4 790.891 499.4C792.425 495.533 794.958 492.533 798.491 490.4C802.025 488.267 805.958 487.2 810.291 487.2ZM844.019 515.4C844.019 509.8 845.152 504.9 847.419 500.7C849.685 496.433 852.785 493.133 856.719 490.8C860.719 488.467 865.152 487.3 870.019 487.3C874.819 487.3 878.985 488.333 882.519 490.4C886.052 492.467 888.685 495.067 890.419 498.2V488.2H899.619V543H890.419V532.8C888.619 536 885.919 538.667 882.319 540.8C878.785 542.867 874.652 543.9 869.919 543.9C865.052 543.9 860.652 542.7 856.719 540.3C852.785 537.9 849.685 534.533 847.419 530.2C845.152 525.867 844.019 520.933 844.019 515.4ZM890.419 515.5C890.419 511.367 889.585 507.767 887.919 504.7C886.252 501.633 883.985 499.3 881.119 497.7C878.319 496.033 875.219 495.2 871.819 495.2C868.419 495.2 865.319 496 862.519 497.6C859.719 499.2 857.485 501.533 855.819 504.6C854.152 507.667 853.319 511.267 853.319 515.4C853.319 519.6 854.152 523.267 855.819 526.4C857.485 529.467 859.719 531.833 862.519 533.5C865.319 535.1 868.419 535.9 871.819 535.9C875.219 535.9 878.319 535.1 881.119 533.5C883.985 531.833 886.252 529.467 887.919 526.4C889.585 523.267 890.419 519.633 890.419 515.5ZM924.097 497.1C925.697 493.967 927.964 491.533 930.897 489.8C933.897 488.067 937.53 487.2 941.797 487.2V496.6H939.397C929.197 496.6 924.097 502.133 924.097 513.2V543H914.997V488.2H924.097V497.1ZM963.402 495.7V528C963.402 530.667 963.968 532.567 965.102 533.7C966.235 534.767 968.202 535.3 971.002 535.3H977.702V543H969.502C964.435 543 960.635 541.833 958.102 539.5C955.568 537.167 954.302 533.333 954.302 528V495.7H947.202V488.2H954.302V474.4H963.402V488.2H977.702V495.7H963.402ZM1102.99 473.3L1082.79 543H1072.59L1056.39 486.9L1039.59 543L1029.49 543.1L1009.99 473.3H1019.69L1034.89 532.4L1051.69 473.3H1061.89L1077.89 532.2L1093.19 473.3H1102.99ZM1109.55 515.4C1109.55 509.8 1110.68 504.9 1112.95 500.7C1115.21 496.433 1118.31 493.133 1122.25 490.8C1126.25 488.467 1130.68 487.3 1135.55 487.3C1140.35 487.3 1144.51 488.333 1148.05 490.4C1151.58 492.467 1154.21 495.067 1155.95 498.2V488.2H1165.15V543H1155.95V532.8C1154.15 536 1151.45 538.667 1147.85 540.8C1144.31 542.867 1140.18 543.9 1135.45 543.9C1130.58 543.9 1126.18 542.7 1122.25 540.3C1118.31 537.9 1115.21 534.533 1112.95 530.2C1110.68 525.867 1109.55 520.933 1109.55 515.4ZM1155.95 515.5C1155.95 511.367 1155.11 507.767 1153.45 504.7C1151.78 501.633 1149.51 499.3 1146.65 497.7C1143.85 496.033 1140.75 495.2 1137.35 495.2C1133.95 495.2 1130.85 496 1128.05 497.6C1125.25 499.2 1123.01 501.533 1121.35 504.6C1119.68 507.667 1118.85 511.267 1118.85 515.4C1118.85 519.6 1119.68 523.267 1121.35 526.4C1123.01 529.467 1125.25 531.833 1128.05 533.5C1130.85 535.1 1133.95 535.9 1137.35 535.9C1140.75 535.9 1143.85 535.1 1146.65 533.5C1149.51 531.833 1151.78 529.467 1153.45 526.4C1155.11 523.267 1155.95 519.633 1155.95 515.5ZM1199.92 543.9C1195.72 543.9 1191.96 543.2 1188.62 541.8C1185.29 540.333 1182.66 538.333 1180.72 535.8C1178.79 533.2 1177.72 530.233 1177.52 526.9H1186.92C1187.19 529.633 1188.46 531.867 1190.72 533.6C1193.06 535.333 1196.09 536.2 1199.82 536.2C1203.29 536.2 1206.02 535.433 1208.02 533.9C1210.02 532.367 1211.02 530.433 1211.02 528.1C1211.02 525.7 1209.96 523.933 1207.82 522.8C1205.69 521.6 1202.39 520.433 1197.92 519.3C1193.86 518.233 1190.52 517.167 1187.92 516.1C1185.39 514.967 1183.19 513.333 1181.32 511.2C1179.52 509 1178.62 506.133 1178.62 502.6C1178.62 499.8 1179.46 497.233 1181.12 494.9C1182.79 492.567 1185.16 490.733 1188.22 489.4C1191.29 488 1194.79 487.3 1198.72 487.3C1204.79 487.3 1209.69 488.833 1213.42 491.9C1217.16 494.967 1219.16 499.167 1219.42 504.5H1210.32C1210.12 501.633 1208.96 499.333 1206.82 497.6C1204.76 495.867 1201.96 495 1198.42 495C1195.16 495 1192.56 495.7 1190.62 497.1C1188.69 498.5 1187.72 500.333 1187.72 502.6C1187.72 504.4 1188.29 505.9 1189.42 507.1C1190.62 508.233 1192.09 509.167 1193.82 509.9C1195.62 510.567 1198.09 511.333 1201.22 512.2C1205.16 513.267 1208.36 514.333 1210.82 515.4C1213.29 516.4 1215.39 517.933 1217.12 520C1218.92 522.067 1219.86 524.767 1219.92 528.1C1219.92 531.1 1219.09 533.8 1217.42 536.2C1215.76 538.6 1213.39 540.5 1210.32 541.9C1207.32 543.233 1203.86 543.9 1199.92 543.9ZM1243.87 495.7V528C1243.87 530.667 1244.44 532.567 1245.57 533.7C1246.7 534.767 1248.67 535.3 1251.47 535.3H1258.17V543H1249.97C1244.9 543 1241.1 541.833 1238.57 539.5C1236.04 537.167 1234.77 533.333 1234.77 528V495.7H1227.67V488.2H1234.77V474.4H1243.87V488.2H1258.17V495.7H1243.87ZM1319.2 513.5C1319.2 515.233 1319.1 517.067 1318.9 519H1275.1C1275.43 524.4 1277.26 528.633 1280.6 531.7C1284 534.7 1288.1 536.2 1292.9 536.2C1296.83 536.2 1300.1 535.3 1302.7 533.5C1305.36 531.633 1307.23 529.167 1308.3 526.1H1318.1C1316.63 531.367 1313.7 535.667 1309.3 539C1304.9 542.267 1299.43 543.9 1292.9 543.9C1287.7 543.9 1283.03 542.733 1278.9 540.4C1274.83 538.067 1271.63 534.767 1269.3 530.5C1266.96 526.167 1265.8 521.167 1265.8 515.5C1265.8 509.833 1266.93 504.867 1269.2 500.6C1271.46 496.333 1274.63 493.067 1278.7 490.8C1282.83 488.467 1287.56 487.3 1292.9 487.3C1298.1 487.3 1302.7 488.433 1306.7 490.7C1310.7 492.967 1313.76 496.1 1315.9 500.1C1318.1 504.033 1319.2 508.5 1319.2 513.5ZM1309.8 511.6C1309.8 508.133 1309.03 505.167 1307.5 502.7C1305.96 500.167 1303.86 498.267 1301.2 497C1298.6 495.667 1295.7 495 1292.5 495C1287.9 495 1283.96 496.467 1280.7 499.4C1277.5 502.333 1275.66 506.4 1275.2 511.6H1309.8Z" fill="#6D4C41"/>
<path d="M1410.67 493.5C1408.73 489.433 1405.93 486.3 1402.27 484.1C1398.6 481.833 1394.33 480.7 1389.47 480.7C1384.6 480.7 1380.2 481.833 1376.27 484.1C1372.4 486.3 1369.33 489.5 1367.07 493.7C1364.87 497.833 1363.77 502.633 1363.77 508.1C1363.77 513.567 1364.87 518.367 1367.07 522.5C1369.33 526.633 1372.4 529.833 1376.27 532.1C1380.2 534.3 1384.6 535.4 1389.47 535.4C1396.27 535.4 1401.87 533.367 1406.27 529.3C1410.67 525.233 1413.23 519.733 1413.97 512.8H1386.17V505.4H1423.67V512.4C1423.13 518.133 1421.33 523.4 1418.27 528.2C1415.2 532.933 1411.17 536.7 1406.17 539.5C1401.17 542.233 1395.6 543.6 1389.47 543.6C1383 543.6 1377.1 542.1 1371.77 539.1C1366.43 536.033 1362.2 531.8 1359.07 526.4C1356 521 1354.47 514.9 1354.47 508.1C1354.47 501.3 1356 495.2 1359.07 489.8C1362.2 484.333 1366.43 480.1 1371.77 477.1C1377.1 474.033 1383 472.5 1389.47 472.5C1396.87 472.5 1403.4 474.333 1409.07 478C1414.8 481.667 1418.97 486.833 1421.57 493.5H1410.67ZM1444.8 497.1C1446.4 493.967 1448.67 491.533 1451.6 489.8C1454.6 488.067 1458.23 487.2 1462.5 487.2V496.6H1460.1C1449.9 496.6 1444.8 502.133 1444.8 513.2V543H1435.7V488.2H1444.8V497.1ZM1523 513.5C1523 515.233 1522.9 517.067 1522.7 519H1478.9C1479.24 524.4 1481.07 528.633 1484.4 531.7C1487.8 534.7 1491.9 536.2 1496.7 536.2C1500.64 536.2 1503.9 535.3 1506.5 533.5C1509.17 531.633 1511.04 529.167 1512.1 526.1H1521.9C1520.44 531.367 1517.5 535.667 1513.1 539C1508.7 542.267 1503.24 543.9 1496.7 543.9C1491.5 543.9 1486.84 542.733 1482.7 540.4C1478.64 538.067 1475.44 534.767 1473.1 530.5C1470.77 526.167 1469.6 521.167 1469.6 515.5C1469.6 509.833 1470.74 504.867 1473 500.6C1475.27 496.333 1478.44 493.067 1482.5 490.8C1486.64 488.467 1491.37 487.3 1496.7 487.3C1501.9 487.3 1506.5 488.433 1510.5 490.7C1514.5 492.967 1517.57 496.1 1519.7 500.1C1521.9 504.033 1523 508.5 1523 513.5ZM1513.6 511.6C1513.6 508.133 1512.84 505.167 1511.3 502.7C1509.77 500.167 1507.67 498.267 1505 497C1502.4 495.667 1499.5 495 1496.3 495C1491.7 495 1487.77 496.467 1484.5 499.4C1481.3 502.333 1479.47 506.4 1479 511.6H1513.6ZM1585.02 513.5C1585.02 515.233 1584.92 517.067 1584.72 519H1540.92C1541.25 524.4 1543.08 528.633 1546.42 531.7C1549.82 534.7 1553.92 536.2 1558.72 536.2C1562.65 536.2 1565.92 535.3 1568.52 533.5C1571.18 531.633 1573.05 529.167 1574.12 526.1H1583.92C1582.45 531.367 1579.52 535.667 1575.12 539C1570.72 542.267 1565.25 543.9 1558.72 543.9C1553.52 543.9 1548.85 542.733 1544.72 540.4C1540.65 538.067 1537.45 534.767 1535.12 530.5C1532.78 526.167 1531.62 521.167 1531.62 515.5C1531.62 509.833 1532.75 504.867 1535.02 500.6C1537.28 496.333 1540.45 493.067 1544.52 490.8C1548.65 488.467 1553.38 487.3 1558.72 487.3C1563.92 487.3 1568.52 488.433 1572.52 490.7C1576.52 492.967 1579.58 496.1 1581.72 500.1C1583.92 504.033 1585.02 508.5 1585.02 513.5ZM1575.62 511.6C1575.62 508.133 1574.85 505.167 1573.32 502.7C1571.78 500.167 1569.68 498.267 1567.02 497C1564.42 495.667 1561.52 495 1558.32 495C1553.72 495 1549.78 496.467 1546.52 499.4C1543.32 502.333 1541.48 506.4 1541.02 511.6H1575.62ZM1623.73 487.2C1630.39 487.2 1635.79 489.233 1639.93 493.3C1644.06 497.3 1646.13 503.1 1646.13 510.7V543H1637.13V512C1637.13 506.533 1635.76 502.367 1633.03 499.5C1630.29 496.567 1626.56 495.1 1621.83 495.1C1617.03 495.1 1613.19 496.6 1610.33 499.6C1607.53 502.6 1606.13 506.967 1606.13 512.7V543H1597.03V488.2H1606.13V496C1607.93 493.2 1610.36 491.033 1613.43 489.5C1616.56 487.967 1619.99 487.2 1623.73 487.2ZM1710.99 513.5C1710.99 515.233 1710.89 517.067 1710.69 519H1666.89C1667.23 524.4 1669.06 528.633 1672.39 531.7C1675.79 534.7 1679.89 536.2 1684.69 536.2C1688.63 536.2 1691.89 535.3 1694.49 533.5C1697.16 531.633 1699.03 529.167 1700.09 526.1H1709.89C1708.43 531.367 1705.49 535.667 1701.09 539C1696.69 542.267 1691.23 543.9 1684.69 543.9C1679.49 543.9 1674.83 542.733 1670.69 540.4C1666.63 538.067 1663.43 534.767 1661.09 530.5C1658.76 526.167 1657.59 521.167 1657.59 515.5C1657.59 509.833 1658.73 504.867 1660.99 500.6C1663.26 496.333 1666.43 493.067 1670.49 490.8C1674.63 488.467 1679.36 487.3 1684.69 487.3C1689.89 487.3 1694.49 488.433 1698.49 490.7C1702.49 492.967 1705.56 496.1 1707.69 500.1C1709.89 504.033 1710.99 508.5 1710.99 513.5ZM1701.59 511.6C1701.59 508.133 1700.83 505.167 1699.29 502.7C1697.76 500.167 1695.66 498.267 1692.99 497C1690.39 495.667 1687.49 495 1684.29 495C1679.69 495 1675.76 496.467 1672.49 499.4C1669.29 502.333 1667.46 506.4 1666.99 511.6H1701.59ZM1732.1 497.1C1733.7 493.967 1735.97 491.533 1738.9 489.8C1741.9 488.067 1745.54 487.2 1749.8 487.2V496.6H1747.4C1737.2 496.6 1732.1 502.133 1732.1 513.2V543H1723V488.2H1732.1V497.1ZM1826.37 473.3V480.7H1796.07V504.2H1820.67V511.6H1796.07V543H1786.97V473.3H1826.37ZM1885.96 488.2V543H1876.86V534.9C1875.13 537.7 1872.69 539.9 1869.56 541.5C1866.49 543.033 1863.09 543.8 1859.36 543.8C1855.09 543.8 1851.26 542.933 1847.86 541.2C1844.46 539.4 1841.76 536.733 1839.76 533.2C1837.83 529.667 1836.86 525.367 1836.86 520.3V488.2H1845.86V519.1C1845.86 524.5 1847.23 528.667 1849.96 531.6C1852.69 534.467 1856.43 535.9 1861.16 535.9C1866.03 535.9 1869.86 534.4 1872.66 531.4C1875.46 528.4 1876.86 524.033 1876.86 518.3V488.2H1885.96ZM1912.43 495.7V528C1912.43 530.667 1912.99 532.567 1914.13 533.7C1915.26 534.767 1917.23 535.3 1920.02 535.3H1926.73V543H1918.53C1913.46 543 1909.66 541.833 1907.13 539.5C1904.59 537.167 1903.33 533.333 1903.33 528V495.7H1896.23V488.2H1903.33V474.4H1912.43V488.2H1926.73V495.7H1912.43ZM1986.35 488.2V543H1977.25V534.9C1975.52 537.7 1973.08 539.9 1969.95 541.5C1966.88 543.033 1963.48 543.8 1959.75 543.8C1955.48 543.8 1951.65 542.933 1948.25 541.2C1944.85 539.4 1942.15 536.733 1940.15 533.2C1938.22 529.667 1937.25 525.367 1937.25 520.3V488.2H1946.25V519.1C1946.25 524.5 1947.62 528.667 1950.35 531.6C1953.08 534.467 1956.82 535.9 1961.55 535.9C1966.42 535.9 1970.25 534.4 1973.05 531.4C1975.85 528.4 1977.25 524.033 1977.25 518.3V488.2H1986.35ZM2010.82 497.1C2012.42 493.967 2014.68 491.533 2017.62 489.8C2020.62 488.067 2024.25 487.2 2028.52 487.2V496.6H2026.12C2015.92 496.6 2010.82 502.133 2010.82 513.2V543H2001.72V488.2H2010.82V497.1ZM2089.02 513.5C2089.02 515.233 2088.92 517.067 2088.72 519H2044.92C2045.25 524.4 2047.09 528.633 2050.42 531.7C2053.82 534.7 2057.92 536.2 2062.72 536.2C2066.65 536.2 2069.92 535.3 2072.52 533.5C2075.19 531.633 2077.05 529.167 2078.12 526.1H2087.92C2086.45 531.367 2083.52 535.667 2079.12 539C2074.72 542.267 2069.25 543.9 2062.72 543.9C2057.52 543.9 2052.85 542.733 2048.72 540.4C2044.65 538.067 2041.45 534.767 2039.12 530.5C2036.79 526.167 2035.62 521.167 2035.62 515.5C2035.62 509.833 2036.75 504.867 2039.02 500.6C2041.29 496.333 2044.45 493.067 2048.52 490.8C2052.65 488.467 2057.39 487.3 2062.72 487.3C2067.92 487.3 2072.52 488.433 2076.52 490.7C2080.52 492.967 2083.59 496.1 2085.72 500.1C2087.92 504.033 2089.02 508.5 2089.02 513.5ZM2079.62 511.6C2079.62 508.133 2078.85 505.167 2077.32 502.7C2075.79 500.167 2073.69 498.267 2071.02 497C2068.42 495.667 2065.52 495 2062.32 495C2057.72 495 2053.79 496.467 2050.52 499.4C2047.32 502.333 2045.49 506.4 2045.02 511.6H2079.62Z" fill="#00695C"/>
<path d="M1313.6 404.6H1405.6V449H1257.6V169.8H1313.6V404.6Z" fill="#8BC34A"/>
<path d="M2055.69 268.503C2043.69 242.872 2023.75 221.121 1998.62 205.726C1986.11 198.074 1972.27 191.988 1957.42 187.838C1942.66 183.597 1926.9 181.383 1910.62 181.383C1889.76 181.383 1869.72 185.075 1851.41 191.809C1849.88 192.356 1848.46 192.906 1847.04 193.554C1830.56 200.099 1815.5 209.318 1802.59 220.292C1798.41 223.885 1794.45 227.665 1790.47 231.906C1783.46 239.189 1776.24 247.58 1769.22 256.06C1767.79 257.805 1766.26 259.651 1764.84 261.408C1760.98 266.197 1724.04 315.244 1717.54 324.003C1714.28 328.423 1710.41 333.401 1706.24 338.84C1705.32 340.038 1704.31 341.334 1703.3 342.621C1696.38 351.561 1688.65 360.969 1681.52 369.269C1677.97 373.411 1674.4 377.281 1671.35 380.513C1668.2 383.826 1665.35 386.501 1663.31 388.255C1654.57 395.719 1644.29 401.805 1633 405.955C1621.71 410.105 1609.4 412.41 1596.37 412.41C1587.42 412.41 1578.78 411.301 1570.64 409.276C1566.47 408.26 1562.4 406.972 1558.43 405.405C1540.93 398.761 1525.98 387.517 1515.5 373.409C1510.21 366.316 1506.04 358.573 1503.19 350.272C1500.44 341.971 1498.82 333.221 1498.82 324.002C1498.82 311.74 1501.57 300.217 1506.45 289.611C1513.88 273.757 1526.28 260.299 1541.85 250.71C1549.68 245.912 1558.22 242.229 1567.38 239.645C1576.53 237.061 1586.2 235.595 1596.37 235.595C1609.4 235.684 1621.71 237.9 1633 242.041C1644.29 246.28 1654.57 252.277 1663.31 259.74C1665.35 261.496 1668.2 264.259 1671.35 267.491C1676.84 273.298 1683.35 280.761 1689.87 288.603C1692.41 291.736 1694.95 294.869 1697.5 298.091C1707.26 285.191 1724.35 262.512 1733.3 250.799C1731.78 248.953 1730.25 247.118 1728.73 245.272C1724.66 240.563 1720.58 236.053 1716.52 231.902C1712.45 227.662 1708.58 223.881 1704.41 220.289C1690.37 208.296 1673.79 198.53 1655.58 191.804C1637.27 185.07 1617.23 181.378 1596.37 181.378C1574.71 181.378 1553.95 185.348 1535.04 192.631C1506.75 203.417 1482.84 221.485 1465.85 244.253C1457.41 255.598 1450.7 268.219 1446.02 281.588C1441.44 295.051 1439 309.249 1439 324.004C1439 343.639 1443.37 362.446 1451.31 379.497C1463.31 405.218 1483.25 426.888 1508.27 442.283C1520.89 449.935 1534.73 456.012 1549.58 460.252C1564.33 464.402 1580.1 466.617 1596.37 466.617C1617.23 466.617 1637.28 462.925 1655.58 456.201C1673.8 449.467 1690.28 439.698 1704.31 427.805L1704.41 427.715C1708.59 424.213 1712.45 420.333 1716.52 416.093C1723.54 408.81 1730.76 400.428 1737.78 391.947C1739.2 390.191 1740.73 388.435 1742.15 386.689C1746.02 381.8 1796.59 314.595 1800.75 309.158C1801.67 307.96 1802.69 306.673 1803.7 305.377C1810.62 296.526 1818.35 287.03 1825.48 278.738C1829.03 274.588 1832.6 270.716 1835.65 267.493C1838.8 264.171 1841.65 261.497 1843.69 259.742C1852.43 252.279 1862.71 246.283 1874 242.043C1876.75 241.035 1879.49 240.208 1882.34 239.369C1891.29 236.976 1900.75 235.688 1910.62 235.597C1924.15 235.687 1936.97 238.082 1948.56 242.601C1966.06 249.236 1981.02 260.48 1991.49 274.588C1996.79 281.691 2000.96 289.434 2003.8 297.724C2006.65 306.025 2008.18 314.784 2008.18 324.003C2008.18 336.265 2005.43 347.879 2000.55 358.385C1993.12 374.238 1980.71 387.796 1965.15 397.285C1957.32 402.083 1948.77 405.865 1939.61 408.35C1930.56 410.934 1920.8 412.411 1910.62 412.411C1897.6 412.411 1885.29 410.107 1874 405.956C1862.71 401.806 1852.43 395.72 1843.68 388.256C1841.65 386.501 1838.8 383.737 1835.65 380.514C1830.15 374.798 1823.64 367.235 1817.13 359.403C1814.49 356.269 1811.94 353.037 1809.4 349.815C1808.59 350.921 1807.77 352.03 1806.86 353.227C1790.07 375.536 1779.49 389.642 1773.69 397.286C1775.21 399.132 1776.74 400.887 1778.26 402.733C1782.34 407.432 1786.41 411.952 1790.47 416.093C1794.45 420.332 1798.41 424.213 1802.58 427.715C1816.62 439.698 1833.2 449.467 1851.41 456.201C1869.72 462.925 1889.76 466.617 1910.62 466.617C1932.29 466.617 1953.04 462.656 1971.86 455.463C2000.24 444.587 2024.15 426.519 2041.14 403.742C2049.58 392.408 2056.4 379.866 2060.97 366.407C2065.56 353.038 2068 338.751 2068 324.004C2068 304.369 2063.63 285.563 2055.69 268.503Z" fill="#8BC34A"/>
<path d="M2177.6 260.4C2184.8 250.267 2194.67 241.867 2207.2 235.2C2220 228.267 2234.53 224.8 2250.8 224.8C2269.73 224.8 2286.8 229.467 2302 238.8C2317.47 248.133 2329.6 261.467 2338.4 278.8C2347.47 295.867 2352 315.733 2352 338.4C2352 361.067 2347.47 381.2 2338.4 398.8C2329.6 416.133 2317.47 429.6 2302 439.2C2286.8 448.8 2269.73 453.6 2250.8 453.6C2234.53 453.6 2220.13 450.267 2207.6 443.6C2195.33 436.933 2185.33 428.533 2177.6 418.4V555.6H2121.6V228.4H2177.6V260.4ZM2294.8 338.4C2294.8 325.067 2292 313.6 2286.4 304C2281.07 294.133 2273.87 286.667 2264.8 281.6C2256 276.533 2246.4 274 2236 274C2225.87 274 2216.27 276.667 2207.2 282C2198.4 287.067 2191.2 294.533 2185.6 304.4C2180.27 314.267 2177.6 325.867 2177.6 339.2C2177.6 352.533 2180.27 364.133 2185.6 374C2191.2 383.867 2198.4 391.467 2207.2 396.8C2216.27 401.867 2225.87 404.4 2236 404.4C2246.4 404.4 2256 401.733 2264.8 396.4C2273.87 391.067 2281.07 383.467 2286.4 373.6C2292 363.733 2294.8 352 2294.8 338.4Z" fill="#8BC34A"/>
</svg>
